<svg width="25" height="25" viewBox="0 0 25 25" fill="currentColor" xmlns="http://www.w3.org/2000/svg">
<path d="M11.1064 9.31228C11.8058 9.90409 12.5053 10.5228 13.2047 11.1146C13.8234 11.6526 14.469 12.1906 15.1146 12.7287C15.7871 13.2936 16.4327 13.8854 17.1053 14.4503C17.993 15.2035 18.8807 15.9836 19.7953 16.7368C19.8491 16.7906 19.876 16.8444 19.876 16.9251C19.876 19.2386 19.876 21.5251 19.876 23.8386C19.876 23.9731 19.876 24 19.7146 24C18.7731 24 17.8316 24 16.8901 24C16.7556 24 16.7287 23.9731 16.7287 23.8386L16.648 18.2433C16.648 18.2164 16.648 18.1895 16.6211 18.1895C16.2982 17.9205 13.0702 15.1228 12.3977 14.5579C11.6713 13.9392 10.945 13.3205 10.2187 12.6749C9.6538 12.1906 9.06199 11.6795 8.49708 11.1953C7.69006 10.5228 6.90994 9.82339 6.10292 9.15088C5.80702 8.82807 5.45731 8.55906 5.1345 8.26316C5.0269 8.18246 5 8.07485 5 7.94035C5 6.48772 5 5.03509 5 3.58246C5 2.77544 5 1.94152 5 1.1345C5 1.0269 5.0269 1 5.1345 1C6.07602 1 6.99064 1 7.90526 1C7.93216 1 7.95906 1 7.95906 1C8.06667 1 8.09357 1.0269 8.09357 1.1345C8.09357 1.34971 8.09357 6.72982 8.09357 6.72982C8.09357 6.72982 10.8912 9.09708 11.1064 9.31228Z" />
<path d="M19.876 4.60468C19.876 5.7614 19.876 6.89123 19.876 8.04795C19.876 8.12865 19.8491 8.18246 19.7953 8.23626C18.8269 9.04327 17.8853 9.87719 16.9169 10.6842C16.5941 10.9801 16.2444 11.2491 15.9216 11.545C15.8409 11.5988 15.814 11.5719 15.7333 11.5181C15.3298 11.1684 14.9532 10.8456 14.5497 10.4959C14.2 10.2 13.8503 9.90409 13.5275 9.60819C13.4736 9.55439 13.4736 9.52748 13.5275 9.47368C14.3883 8.72047 15.276 7.99415 16.1368 7.24094C16.2982 7.07953 16.4865 6.94503 16.6479 6.78363C16.7286 6.72982 16.7286 6.64912 16.7286 6.56842C16.7286 6.19181 16.7286 5.7883 16.7286 5.4117C16.7286 4.06667 16.7286 2.72164 16.7286 1.37661C16.7286 1.29591 16.7286 1.2152 16.7286 1.1345C16.7286 1.0538 16.7555 1 16.8631 1C17.7508 1 18.6386 1 19.5263 1C19.607 1 19.6608 1 19.7415 1C19.876 1 19.876 1.0269 19.876 1.1345C19.876 1.48421 19.876 1.80702 19.876 2.15673C19.876 2.96374 19.876 3.77076 19.876 4.60468Z" />
<path d="M5 20.396C5 19.2393 5 18.0826 5 16.9527C5 16.872 5.0538 16.8182 5.1076 16.7644C5.45731 16.4685 5.80702 16.1726 6.15673 15.8767C6.77544 15.3387 7.39415 14.8007 8.01287 14.2627C8.33567 13.9937 8.63158 13.7247 8.95439 13.4557C9.00819 13.4019 9.03509 13.4288 9.08889 13.4557C9.7345 14.0206 10.3801 14.5855 11.0257 15.1235C11.1333 15.2042 11.214 15.2849 11.3216 15.3656C11.3754 15.4194 11.4023 15.4463 11.3216 15.527C10.5684 16.1726 9.8421 16.7913 9.08889 17.4369C8.79298 17.7059 8.47018 17.9481 8.17427 18.2171C8.12047 18.2709 8.09357 18.3247 8.09357 18.4323C8.09357 19.0241 8.09357 19.6428 8.09357 20.2346C8.09357 21.4451 8.09357 22.6826 8.09357 23.8931C8.09357 23.9738 8.06667 24.0276 7.98596 24.0276C7.04444 24.0276 6.07602 24.0276 5.1345 24.0276C5.0269 24.0007 5 23.9738 5 23.8662C5 22.7095 5 21.5527 5 20.396Z" />
</svg>