<svg class="logo" fill="white"
           xmlns="http://www.w3.org/2000/svg" x="0px" y="0px"
           viewBox="0 0 512 512" xml:space="preserve">
        <path class="st0" d="M256,429.55c-22.77,0-41.22,18.46-41.22,41.22S233.23,512,256,512s41.22-18.46,41.22-41.22
        S278.77,429.55,256,429.55z M256,489.53c-11.38-0.01-20.6-9.25-20.59-20.64c0.01-11.38,9.25-20.6,20.64-20.59
        c11.38,0.01,20.6,9.25,20.59,20.64c0,0.34-0.01,0.67-0.03,1C276.06,480.93,266.99,489.55,256,489.53z"/>
        <path class="st1" d="M91.1,93.17c-11.38,0-20.61-9.23-20.61-20.61V20.82c0-11.38,9.23-20.61,20.61-20.61s20.61,9.23,20.61,20.61
        v51.74C111.72,83.94,102.49,93.17,91.1,93.17z"/>
        <ellipse transform="matrix(0.1602 -0.9871 0.9871 0.1602 -175.8815 303.6248)"
                 class="st1" cx="90.5" cy="255.18" rx="20.82" ry="20.82"/>
        <ellipse transform="matrix(0.1602 -0.9871 0.9871 0.1602 -115.8645 252.5534)"
                 class="st1" cx="90.49" cy="194.37" rx="20.82" ry="20.82"/>
        <ellipse class="st1" cx="90.49" cy="133.36" rx="20.82" ry="20.82"/>
        <path class="st0" d="M420.9,153.56c-11.38,0-20.61-9.23-20.61-20.61V81c0-11.38,9.23-20.61,20.61-20.61
        c11.38,0,20.61,9.23,20.61,20.61v51.94C441.51,144.33,432.28,153.56,420.9,153.56z"/>
        <circle class="st0" cx="421.51" cy="255.38" r="20.82"/>
        <circle class="st0" cx="421.51" cy="193.75" r="20.82"/>
        <circle class="st0" cx="421.51" cy="20.82" r="20.82"/>
        <path class="st2" d="M256,337.62c-11.38,0-20.61-9.23-20.61-20.61v-52.35c0-11.38,9.23-20.61,20.61-20.61s20.61,9.23,20.61,20.61
        v52.35C276.61,328.39,267.38,337.62,256,337.62z"/>
        <circle class="st2" cx="256" cy="377.4" r="20.82"/>
        <circle class="st2" cx="256" cy="203.85" r="20.82"/>
        <circle class="st2" cx="256" cy="143.05" r="20.82"/>
        <path class="st0" d="M338.45,214.98c-11.38,0-20.61-9.23-20.61-20.61v-51.74c0-11.38,9.23-20.61,20.61-20.61
        c11.38,0,20.61,9.23,20.61,20.61v51.74C359.06,205.75,349.83,214.98,338.45,214.98z"/>
        <circle class="st0" cx="338.86" cy="81.62" r="20.82"/>
        <circle class="st0" cx="338.86" cy="315.36" r="20.82"/>
        <circle class="st0" cx="338.86" cy="254.56" r="20.82"/>
        <circle class="st1" cx="173.14" cy="315.36" r="20.82"/>
        <circle class="st1" cx="173.14" cy="143.05" r="20.82"/>
        <circle class="st1" cx="173.14" cy="81.62" r="20.82"/>
        <path class="st1" d="M173.55,275.79c-11.38,0-20.61-9.23-20.61-20.61v-52.35c0-11.38,9.23-20.61,20.61-20.61
        s20.61,9.23,20.61,20.61v52.35C194.16,266.56,184.94,275.79,173.55,275.79z"/>
    </svg>