<!-- Generated by IcoMoon.io -->
<svg version="1.1" xmlns="http://www.w3.org/2000/svg" width="32" height="32" viewBox="0 0 32 32">
<title>ScreenshotMachine-icon</title>
<path d="M14.656 9.664h3.264c1.28 0 2.368-1.024 2.368-2.368v-4.288c0-1.28-1.024-2.368-2.368-2.368h-3.328c-1.28 0-2.368 1.024-2.368 2.368v4.352c0.064 1.28 1.088 2.304 2.432 2.304zM26.368 20.672c0.448-4.608-2.24-7.552-3.2-8.448 0.064-0.192 0.128-0.448 0.128-0.704 0-0.448-0.192-0.768-0.32-1.088-0.512-0.768-1.472-0.96-2.24-0.64-3.84 1.6-7.040 0.64-8.512 0-1.216-0.512-2.624 0.32-2.624 1.664 0 0 0 0.064 0 0.064 0 0.192 0.064 0.384 0.128 0.64-0.832 0.768-3.776 3.776-3.328 8.576-0.192 0.256-0.32 0.576-0.32 0.96 0 0.896 0.704 1.6 1.6 1.6s1.6-0.704 1.6-1.6c0-0.576-0.32-1.088-0.768-1.344-0.256-1.28-0.512-4.416 1.472-7.552 0.256 0.384 0.576 0.64 0.96 0.768 0.128 0.064 0.256 0.064 0.384 0.128v5.696c0 0.64 0.256 1.216 0.704 1.6-1.152 1.408-3.776 5.184-3.136 8.832 0 0 1.152 3.072 4.608 0.448 0.32-0.256 0.512-0.704 0.448-1.152-0.256-1.472-0.704-4.928-0.448-7.552 0.064 0 0.128 0 0.192 0h4.864c0.128 0 0.256 0 0.384-0.064 0.256 2.624-0.256 6.080-0.448 7.552-0.064 0.448 0.064 0.896 0.448 1.152 3.456 2.56 4.608-0.448 4.608-0.448 0.64-3.776-2.176-7.68-3.264-8.96 0.384-0.384 0.576-0.96 0.576-1.536v-5.632c0.448-0.128 0.832-0.256 1.152-0.32 0.32-0.128 0.576-0.32 0.832-0.512 1.92 3.072 1.664 6.208 1.408 7.488-0.448 0.256-0.768 0.768-0.768 1.344 0 0.896 0.704 1.6 1.6 1.6s1.6-0.704 1.6-1.6c0-0.32-0.128-0.64-0.32-0.96z"></path>
</svg>
