<?xml version="1.0" encoding="UTF-8"?><svg id="Layer_1" xmlns="http://www.w3.org/2000/svg" viewBox="0 0 23 21"><defs><style>.cls-1{fill-rule:evenodd;}</style></defs><path class="cls-1" d="M22.8,9.73L17.8.78c-.27-.47-.76-.78-1.3-.78H6.49c-.54,0-1.03.31-1.3.78L.2,9.73c-.27.47-.27,1.06,0,1.53l5.02,8.95c.27.47.76.75,1.3.78h9.99c.54,0,1.03-.31,1.3-.78l4.99-8.95c.27-.47.27-1.06,0-1.53ZM17,11.95h-7.15v-.58h-1.65v2.89h1.65v-.58h7.15v2.32h-7.15v-.58h-2.75v-6.95h-1.1v-3.47h3.3v3.47h-1.1v1.74h1.65v-.58h7.15v2.32ZM17,7.89h-7.15v-2.32h7.15v2.32Z"/></svg>