<svg xmlns="http://www.w3.org/2000/svg" width="48px" height="48px" viewBox="0 0 48 48" version="1.1"><path d="M 46.304688 17.625 C 45.367188 17.625 44.605469 18.382812 44.605469 19.320312 C 44.605469 33.285156 33.285156 44.605469 19.320312 44.605469 C 18.382812 44.605469 17.625 45.367188 17.625 46.304688 C 17.625 47.242188 18.382812 48 19.320312 48 C 35.160156 48 48 35.160156 48 19.320312 C 48 18.382812 47.242188 17.625 46.304688 17.625 Z M 46.304688 17.625 "/><path d="M 36.0625 28.5 C 37.691406 25.835938 39.269531 22.289062 38.960938 17.320312 C 38.316406 7.027344 28.996094 -0.785156 20.191406 0.0625 C 16.742188 0.394531 13.207031 3.203125 13.519531 8.234375 C 13.65625 10.421875 14.726562 11.710938 16.464844 12.703125 C 18.121094 13.648438 20.25 14.246094 22.660156 14.925781 C 25.570312 15.746094 28.949219 16.664062 31.546875 18.578125 C 34.660156 20.871094 36.785156 23.53125 36.0625 28.5 Z M 36.0625 28.5 "/><path d="M 2.9375 10.5 C 1.308594 13.164062 -0.269531 16.710938 0.0390625 21.679688 C 0.683594 31.972656 10.003906 39.785156 18.808594 38.9375 C 22.257812 38.605469 25.792969 35.796875 25.480469 30.765625 C 25.34375 28.578125 24.273438 27.289062 22.535156 26.296875 C 20.878906 25.351562 18.75 24.753906 16.339844 24.074219 C 13.429688 23.253906 10.050781 22.335938 7.453125 20.421875 C 4.339844 18.128906 2.214844 15.46875 2.9375 10.5 Z M 2.9375 10.5 "/></svg>
