<?xml version="1.0" encoding="UTF-8"?><svg width="24" height="24" viewBox="0 0 24 24" fill="none" xmlns="http://www.w3.org/2000/svg"><g clip-path="url(#clip0_8081_7556)"><path d="M15.4833 20.9833L13.0083 18.5083L15.4833 16.0333L17.9583 18.5083L15.4833 20.9833ZM8.51667 18.5083L3.01667 13.0083L8.51667 7.50833L14.0167 13.0083L8.51667 18.5083ZM18.0042 9.98333C17.9889 9.98333 17.9278 9.9375 17.8208 9.84583C17.5917 8.94444 17.1486 8.16528 16.4917 7.50833C15.8347 6.85139 15.0556 6.40833 14.1542 6.17917C14.1236 6.16389 14.0778 6.10278 14.0167 5.99583C14.0167 5.96528 14.0625 5.90417 14.1542 5.8125C15.0556 5.58333 15.8347 5.14028 16.4917 4.48333C17.1486 3.82639 17.5917 3.04722 17.8208 2.14583C17.8361 2.11528 17.8972 2.06944 18.0042 2.00833C18.0347 2.00833 18.0958 2.05417 18.1875 2.14583C18.4319 3.04722 18.875 3.82639 19.5167 4.48333C20.1736 5.14028 20.9528 5.58333 21.8542 5.8125C21.8847 5.8125 21.9306 5.87361 21.9917 5.99583C21.9917 6.01111 21.9458 6.07222 21.8542 6.17917C20.9528 6.40833 20.1736 6.85139 19.5167 7.50833C18.8597 8.16528 18.4167 8.94444 18.1875 9.84583C18.1875 9.87639 18.1264 9.92222 18.0042 9.98333Z" fill="white"/></g><defs><clipPath id="clip0_8081_7556"><rect width="24" height="24" fill="white"/></clipPath></defs></svg>