<svg width="25" height="26" viewBox="0 0 25 26" fill="none" xmlns="http://www.w3.org/2000/svg">
<path d="M18.2986 2.8615L9.2219 6.19738C9.25319 6.28874 9.27208 6.38585 9.27658 6.4867L18.7998 12.2449C18.9197 12.1563 19.0594 12.0928 19.2111 12.0624L18.2986 2.8615Z" fill="currentColor"/>
<path d="M8.56882 7.51833C8.79076 7.4442 8.9793 7.29713 9.10602 7.10558L18.4258 12.7691C18.395 12.8672 18.3784 12.9716 18.3784 13.0799C18.3784 13.1847 18.3939 13.2859 18.4228 13.3813L9.29188 18.7315C9.13794 18.578 8.93606 18.4726 8.71065 18.4396L8.56882 7.51833Z" fill="currentColor"/>
<path d="M7.90694 7.51704C7.76038 7.46744 7.62851 7.38599 7.51955 7.28093L0.576 13.0799L7.88443 18.6779C7.94295 18.6278 8.00713 18.584 8.07587 18.5478L7.90694 7.51704Z" fill="currentColor"/>
<path d="M7.21041 6.66648L0.5 12.3039L6.07809 2.64654L7.55648 5.75265C7.33921 5.94287 7.20201 6.22229 7.20201 6.53375C7.20201 6.57872 7.20487 6.62302 7.21041 6.66648Z" fill="currentColor"/>
<path d="M8.1684 5.49836C8.192 5.49676 8.21581 5.49594 8.23982 5.49594C8.43729 5.49594 8.62188 5.5511 8.77902 5.64684L17.7595 2.354L6.66706 2.35269L8.1684 5.49836Z" fill="currentColor"/>
<path d="M8.4222 20.4953L6.67108 23.6473H17.5339L9.16013 20.3126C8.99054 20.4333 8.78313 20.5043 8.55914 20.5043C8.51272 20.5043 8.46701 20.5012 8.4222 20.4953Z" fill="currentColor"/>
<path d="M7.54228 19.258L0.662312 13.9714L0.657842 13.9714L6.07777 23.3609L7.83359 20.2085C7.64092 20.0201 7.52133 19.7572 7.52133 19.4665C7.52133 19.395 7.52854 19.3253 7.54228 19.258Z" fill="currentColor"/>
<path d="M18.8806 13.969C18.9636 14.0191 19.0543 14.058 19.1504 14.0834L18.2986 23.2983L9.54932 19.7781C9.58026 19.6797 9.59694 19.575 9.59694 19.4664C9.59694 19.4175 9.59355 19.3693 9.58699 19.3221L18.8806 13.969Z" fill="currentColor"/>
<path d="M19.8022 14.0436L19.0148 22.8217L24.491 13.3386H20.4215C20.339 13.6603 20.1061 13.9218 19.8022 14.0436Z" fill="currentColor"/>
<path d="M19.8962 12.1596C20.1105 12.2715 20.2808 12.4562 20.3745 12.6808L24.5 12.6808L18.9766 3.11243C19.2521 5.69521 19.781 11.001 19.8962 12.1596Z" fill="currentColor"/>
</svg>