<svg width="25" height="25" viewBox="0 0 25 25" fill="currentColor" xmlns="http://www.w3.org/2000/svg">
<path fill-rule="evenodd" clip-rule="evenodd" d="M12.5 4C7.275 4 3 8.19324 3 13.4348C3 16.1985 4.14001 18.6764 5.94501 20.4871C6.61001 21.1542 7.655 21.1542 8.415 20.5824C9.46 19.7247 10.885 19.2482 12.5 19.2482C14.115 19.2482 15.445 19.7247 16.585 20.5824C17.345 21.1542 18.39 21.0589 19.055 20.3918C20.86 18.6764 22 16.1985 22 13.4348C21.905 8.28854 17.725 4 12.5 4ZM12.405 18.2951C9.55501 18.2951 7.65501 16.1985 7.65501 13.5301C7.65501 10.8617 9.55501 8.76505 12.405 8.76505C15.255 8.76505 17.155 10.957 17.155 13.5301C17.155 16.1032 15.255 18.2951 12.405 18.2951Z" />
</svg>