<svg xmlns="http://www.w3.org/2000/svg" viewBox="0 0 25 25"><path d="M6.28 11.23c.39.44 1.13.74 1.45.84.09.27 1.87 2.4 1.94 2.69-.18.5-1.94 1.1-3.04.82-.52-.89-.43-3.04-.34-4.35ZM14.32 5.28c.43.3.57.69.69.97 1.26.4 2.85 1.67 3.49 1.82.59-.31.82-2.23.45-3.19-.85-.37-4.23-.09-4.62.4Z"/><path d="M7.87 1.38c3.21-.48 10.87 7.29 9.4 15.93-1.17-2.4-2.39-4.22-8.21-5.16C4.85 11 5.01 7.51 5.09 5.88c.02-.37.03-.64-.01-.77.55.78 1.25 1.63 2.04 1.03-.23-1.33-.23-3.93.76-4.76Zm1.4 4.35c.43 0 .77-.35.77-.77s-.35-.77-.77-.77-.77.35-.77.77.35.77.77.77Z" style="fill-rule:evenodd"/><path d="M9.63 4.95c0 .2-.16.36-.36.36s-.36-.16-.36-.36.16-.36.36-.36.36.16.36.36ZM17.47 17.66c1.43-.36 4.28.82 5.53 1.46-4.8-1.15-7.26 2.32-9.02 4.51.58-1.86 2.06-5.61 3.49-5.97ZM2.36 3.24s-.09.08-.16.08c-.04 0-.08-.01-.11-.03A.196.196 0 0 1 2 3.12c0-.11.09-.2.2-.2.05 0 .09.02.13.05.04.04.07.09.07.15 0 .05-.02.09-.04.12Z"/><path d="M2.36 3.24c.12.17.47.58 1.97.86 1.75.19 1.96.9 1.84 1.23-.13 1.42-1.58.87-1.95.26-.14-.24-.32-.41-.46-.51-.06-.05-.12-.08-.15-.1h-.05c.32.2.24.19.49.57.67 1.3 2.31 1.2 2.41-.22.07-1.13-1.33-1.44-2.13-1.46-1.19-.14-1.42-.29-1.71-.47-.08-.05-.16-.1-.27-.16Z"/></svg>