<svg viewBox="0 0 24 24" version="1.1" xmlns="http://www.w3.org/2000/svg" xmlns:xlink="http://www.w3.org/1999/xlink">
    <g stroke="none" stroke-width="1" fill="none" fill-rule="evenodd">
        <g transform="translate(2.000000, 6.000000)" fill="currentColor" fill-rule="nonzero">
            <path d="M20,9.41469125e-14 L20,11.8867925 L16.0377358,11.8867925 C15.9335312,11.8867925 15.8490566,11.8023179 15.8490566,11.6981132 L15.8490566,10.5660377 C15.8490566,10.4618331 15.9335312,10.3773585 16.0377358,10.3773585 L18.4900566,10.377 L18.4900566,1.509 L16.0377358,1.50943396 C15.9335312,1.50943396 15.8490566,1.42495939 15.8490566,1.32075472 L15.8490566,0.188679245 C15.8490566,0.0844745755 15.9335312,9.41105434e-14 16.0377358,9.41469125e-14 L20,9.41469125e-14 Z M4.309101,9.41469125e-14 C4.41330567,9.3877869e-14 4.49778024,0.0844745755 4.49778024,0.188679245 L4.49778024,1.32075472 C4.49778024,1.42495939 4.41330567,1.50943396 4.309101,1.50943396 L1.509,1.509 L1.509,10.377 L4.29245283,10.3773585 C4.3966575,10.3773585 4.48113208,10.4618331 4.48113208,10.5660377 L4.48113208,11.6981132 C4.48113208,11.8023179 4.3966575,11.8867925 4.29245283,11.8867925 L2.14050999e-13,11.8867925 L2.14050999e-13,9.41469125e-14 L4.309101,9.41469125e-14 Z" ></path>
        </g>
    </g>
</svg>
