<?xml version="1.0" encoding="UTF-8"?><svg id="Layer_1" data-name="Layer 1" xmlns="http://www.w3.org/2000/svg" viewBox="0 0 24 24"> <defs> <style> .cls-1 { stroke-width: 0px; } </style> </defs> <path class="cls-1" d="M4,18V6h8V4H3A1,1,0,0,0,2,5V19a1,1,0,0,0,1,1h9V18ZM21,4H12V6h8V18H12v2h9a1,1,0,0,0,1-1V5a1,1,0,0,0-1-1M9,12l0-2,3-1V7L7,9v3c0,2.38,3,5,5,5V15c-.89,0-3-1.38-3-3M15,12c0,1.62-2.1,3-3,3v2c2,0,5-2.62,5-5V9L12,7V9l3,1,0,2M12.59,12.8a.86.86,0,0,1-1.19,0l-1-1.22L11,11l1,1.09,3-3,.6.59Z"/></svg>