<?xml version="1.0" encoding="UTF-8"?><svg id="Layer_1" xmlns="http://www.w3.org/2000/svg" viewBox="0 0 23 21"><defs><style>.cls-1{fill-rule:evenodd;}</style></defs><path d="M10.76,10.03v-1.75h1.42v1.75h-1.42Z"/><path d="M5.48,10.03v-1.75h1.42v1.75h-1.42Z"/><path class="cls-1" d="M22.8,9.73L17.8.78c-.27-.47-.76-.78-1.3-.78H6.49c-.54,0-1.03.31-1.3.78L.2,9.73c-.27.47-.27,1.06,0,1.53l5.02,8.95c.27.47.76.75,1.3.78h9.99c.54,0,1.03-.31,1.3-.78l4.99-8.95c.27-.47.27-1.06,0-1.53ZM8.31,14h-1.42v-2.62h-1.42v2.62h-1.48v-5.66c0-.64.77-1.28,1.48-1.28h1.35c.77,0,1.48.64,1.48,1.28v5.66ZM13.66,10.09c0,.64-.77,1.28-1.48,1.28h-1.42v2.62h-1.42v-5.72c0-.64.71-1.28,1.48-1.28h1.35c.77,0,1.48.7,1.48,1.34v1.75ZM19,8.34h-1.42v4.38h1.42v1.28h-4.38v-1.28h1.48v-4.38h-1.48v-1.28h4.38v1.28Z"/></svg>