<svg xmlns="http://www.w3.org/2000/svg" viewBox="0 0 25 25"><path d="M14.78 1.78c.06-.44.45-.78.91-.78h3.3c1.85 0 3.27 1.62 2.97 3.41l-1.18 7.08c-.04.24-.18.45-.38.59l-7.07 4.86c-.35.24-.83.21-1.15-.08l-3.66-3.32a.88.88 0 0 1-.05-1.26c.34-.36.92-.38 1.29-.05l3.12 2.83 6.14-4.22 1.11-6.71c.12-.7-.44-1.33-1.16-1.33h-2.5l-.28 2.04h.52c.25 0 .5.1.67.28.17.18.26.42.25.67l-.26 3.83a.9.9 0 0 1-.91.83H8.69c-1.1 0-2.04.79-2.2 1.85l-1.37 8.89 1.66-1.12c.15-.1.34-.16.52-.16h8.87c.88 0 1.61-.65 1.69-1.5l.3-3.05c.05-.49.5-.85 1-.81.5.05.87.48.83.98l-.3 3.05c-.17 1.77-1.7 3.12-3.52 3.12H7.6l-3.17 2.14c-.3.2-.7.21-1.01.02a.877.877 0 0 1-.42-.89l1.69-10.94c.3-1.94 2-3.37 4.01-3.37h6.91l.14-2.04h-.59a.91.91 0 0 1-.91-1.02l.52-3.83Z" style="fill-rule:evenodd"/></svg>