<svg id="Layer_1" data-name="Layer 1" xmlns="http://www.w3.org/2000/svg" viewBox="0 0 25 25"><path d="M10.23,7.79c-.05,0-.09,0-.13,0l-4,.6c-.65.13-.91,1.34-1,2.63s.3,2.29.9,2.37l3.84,0c.6-.09,1.21-1.08,1.29-2.8S10.79,7.79,10.23,7.79ZM4.58,4H4.49l-2.84.43C1.22,4.52,1,5.34,1,6.29s.22,1.59.65,1.63H4.28c.47-.08.86-.77.9-2S5,4,4.58,4Zm8,8.75-.39.05c-1,.13-1.38,2-1.46,4.05s.47,3.58,1.42,3.67h5.91c.9-.13,1.72-1.38,2-3.63l-5.17.05C13.59,16.81,12.82,15.13,12.6,12.75ZM22.47,6.2a.55.55,0,0,0-.25,0l-6.95,1c-1.12.22-1.55,2.29-1.64,4.53s.48,4,1.56,4.06h6.55C22.82,15.73,23.85,14,24,11,24.11,8.23,23.47,6.2,22.47,6.2Z"/></svg>