<svg version="1.2" xmlns="http://www.w3.org/2000/svg" viewBox="0 0 1582 1587" width="1582" height="1587">
	<title>zerofox-vector-logo-svg</title>
	<g id="Layer">
		<path id="Layer" class="s0" d="m895.6 626.2l190.2-125.5v315.9l70.6 72.2-305.4 297.1h-60.5v-559.7z"/>
		<path id="Layer" class="s1" d="m790.5 626.2v559.7h-59.1l-305.5-297.1 70.6-72.2v-315.9l188.8 125.5z"/>
		<path id="Layer" class="s0" d="m0.9 793.6c0-438.6 354.4-793.4 792.4-793.4 141.2 0 275.2 37.5 390.5 103.8l-102.3 141.4c-86.4-46.1-184.4-72.1-289.6-72.1-342.9 0-619.6 278.4-619.6 620.3 0 177.4 75 337.5 193.1 450l-102.3 141.4c-162.8-144.3-265.1-356.3-262.2-591.4z"/>
		<path id="Layer" class="s1" d="m1581.5 793.6c0 438.5-354.5 793.3-792.5 793.3-141.2 0-275.2-37.5-390.4-103.8l102.3-141.4c86.4 46.2 184.4 72.1 289.6 72.1 342.9 0 619.5-278.4 619.5-620.2 0-177.5-74.9-337.6-193-450.1l102.3-141.4c162.8 145.7 265.1 356.3 262.2 591.5z"/>
	</g>
</svg>