<svg xmlns="http://www.w3.org/2000/svg" width="25" height="25" fill="currentColor" viewBox="0 0 25 25">
  <path fill-rule="evenodd" d="M22.55 19.5L17 13.95c.55-1.1.9-2.35.9-3.7 0-4.4-3.6-8-8-8s-8 3.6-8 8 3.6 8 8 8c1.7 0 3.3-.55 4.6-1.45l5.4 5.4c.75.75 1.95.75 2.65 0 .75-.75.75-1.95 0-2.7zM9.9 15.6c-2.95 0-5.35-2.4-5.35-5.35 0-2.95 2.4-5.35 5.35-5.35 2.95 0 5.35 2.4 5.35 5.35 0 2.95-2.4 5.35-5.35 5.35zM9 6.7c-.9 0-1.6.7-1.6 1.6 0 .9.7 1.6 1.6 1.6.9 0 1.6-.7 1.6-1.6 0-.9-.7-1.6-1.6-1.6z" clip-rule="evenodd"/>
</svg>