<svg width="25" height="25" viewBox="0 0 25 25" fill="currentColor" xmlns="http://www.w3.org/2000/svg">
<path fill-rule="evenodd" clip-rule="evenodd" d="M19.4 7.9499C20.75 7.9499 21.7999 6.8999 21.7999 5.5499C21.7999 4.2499 20.6999 3.1499 19.4 3.1499C18.0999 3.1499 17 4.2499 17 5.5499C17 6.8999 18.0999 7.9499 19.4 7.9499ZM12.5 3.1499C11.15 3.1499 10.1 4.1999 10.1 5.5499C10.1 6.8499 11.2 7.9499 12.5 7.9499C13.8 7.9499 14.9 6.8999 14.9 5.5499C14.9 4.2499 13.85 3.1499 12.5 3.1499ZM19.4 10.0999C18.0499 10.0999 17 11.1499 17 12.4999C17 13.7999 18.0999 14.8999 19.4 14.8999C20.6999 14.8999 21.7999 13.8499 21.7999 12.4999C21.8499 11.1499 20.75 10.0999 19.4 10.0999ZM12.5 10.0999C11.15 10.0999 10.1 11.1499 10.1 12.4999C10.1 13.7999 11.2 14.8999 12.5 14.8999C13.8 14.8999 14.9 13.8499 14.9 12.4999C14.9 11.1499 13.85 10.0999 12.5 10.0999ZM5.59995 10.0999C4.24995 10.0999 3.19995 11.1499 3.19995 12.4999C3.19995 13.7999 4.29995 14.8999 5.59995 14.8999C6.89995 14.8999 7.99995 13.7999 7.99995 12.4999C7.99995 11.1499 6.89995 10.0999 5.59995 10.0999ZM12.5 17.0499C11.15 17.0499 10.1 18.0999 10.1 19.4499C10.1 20.7499 11.2 21.8499 12.5 21.8499C13.8 21.8499 14.9 20.7999 14.9 19.4499C14.9 18.0999 13.85 17.0499 12.5 17.0499ZM5.59995 17.0499C4.24995 17.0499 3.19995 18.0999 3.19995 19.4499C3.19995 20.7499 4.29995 21.8499 5.59995 21.8499C6.89995 21.8499 7.99995 20.7999 7.99995 19.4499C7.99995 18.0999 6.89995 17.0499 5.59995 17.0499Z" />
</svg>