<svg xmlns="http://www.w3.org/2000/svg" width="48px" height="48px" viewBox="0 0 48 48" version="1.1"><path d="M 42.222656 25.144531 C 42.421875 25.285156 42.617188 25.359375 42.832031 25.476562 C 43.007812 25.574219 43.1875 25.664062 43.363281 25.757812 C 43.5 25.832031 43.753906 25.984375 43.597656 26.164062 C 43.5 26.28125 43.257812 26.261719 43.113281 26.285156 C 42.890625 26.316406 42.613281 26.300781 42.390625 26.285156 C 42.113281 26.257812 41.828125 26.324219 41.546875 26.324219 C 41.347656 26.324219 41.144531 26.332031 40.941406 26.332031 C 40.871094 26.332031 40.78125 26.347656 40.730469 26.285156 C 40.679688 26.21875 40.714844 26.148438 40.757812 26.09375 C 40.804688 26.027344 40.847656 25.941406 40.90625 25.890625 C 40.957031 25.84375 41.027344 25.8125 41.078125 25.773438 C 41.203125 25.675781 41.246094 25.570312 41.136719 25.445312 C 41.023438 25.320312 40.945312 25.234375 40.9375 25.054688 C 40.929688 24.832031 41.074219 24.785156 41.265625 24.734375 C 41.554688 24.660156 41.53125 24.710938 41.769531 24.847656 C 41.886719 24.914062 42.167969 25.105469 42.222656 25.144531 Z M 5.488281 25.234375 C 5.285156 25.367188 5.09375 25.441406 4.871094 25.554688 C 4.695312 25.644531 4.515625 25.726562 4.335938 25.816406 C 4.199219 25.886719 3.9375 26.035156 4.089844 26.21875 C 4.183594 26.339844 4.429688 26.328125 4.570312 26.351562 C 4.792969 26.386719 5.070312 26.382812 5.292969 26.367188 C 5.570312 26.351562 5.855469 26.425781 6.132812 26.433594 C 6.335938 26.4375 6.539062 26.453125 6.738281 26.457031 C 6.8125 26.457031 6.902344 26.476562 6.953125 26.414062 C 7.003906 26.351562 6.96875 26.277344 6.933594 26.222656 C 6.886719 26.15625 6.84375 26.066406 6.785156 26.011719 C 6.738281 25.964844 6.667969 25.933594 6.617188 25.890625 C 6.496094 25.792969 6.453125 25.6875 6.570312 25.566406 C 6.683594 25.445312 6.765625 25.355469 6.777344 25.179688 C 6.789062 24.957031 6.65625 24.867188 6.457031 24.851562 C 6.203125 24.828125 6.214844 24.882812 5.960938 24.976562 C 5.835938 25.023438 5.546875 25.199219 5.488281 25.234375 Z M 47.773438 26.832031 C 46.207031 28.632812 43.242188 27.730469 38.34375 30.074219 C 31.84375 33.183594 31.417969 35.03125 23.941406 35.085938 C 16.207031 35.140625 16.03125 33.015625 9.179688 29.964844 C 3.773438 27.554688 0.777344 28.636719 0.136719 26.75 C -0.734375 24.269531 2.742188 21.984375 4.644531 20.644531 C 13.273438 14.570312 17.03125 12.933594 23.757812 12.941406 C 30.980469 12.527344 37.964844 16.769531 43.183594 20.644531 C 45.042969 22.027344 48.984375 24.667969 47.773438 26.832031 Z M 24.242188 25.285156 L 24.242188 26.816406 C 25.84375 26.675781 27.125 25.378906 27.277344 23.742188 L 25.746094 23.746094 C 25.613281 24.539062 25.007812 25.160156 24.242188 25.285156 Z M 25.128906 23.75 L 24.246094 23.75 L 24.242188 24.667969 C 24.675781 24.558594 25.019531 24.203125 25.128906 23.75 Z M 25.136719 23.148438 C 25.035156 22.675781 24.6875 22.308594 24.246094 22.195312 L 24.246094 23.148438 Z M 20.628906 23.15625 L 22.179688 23.152344 C 22.292969 22.359375 22.886719 21.726562 23.644531 21.585938 L 23.644531 20.011719 C 22.027344 20.164062 20.75 21.496094 20.628906 23.15625 Z M 23.640625 24.65625 L 23.644531 23.75 L 22.800781 23.753906 C 22.910156 24.191406 23.230469 24.535156 23.640625 24.65625 Z M 22.183594 23.753906 L 20.632812 23.757812 C 20.789062 25.378906 22.054688 26.664062 23.640625 26.816406 L 23.640625 25.277344 C 22.898438 25.136719 22.316406 24.527344 22.183594 23.753906 Z M 23.644531 23.148438 L 23.644531 22.207031 C 23.21875 22.332031 22.886719 22.695312 22.789062 23.152344 Z M 27.28125 23.144531 C 27.152344 21.480469 25.867188 20.152344 24.246094 20.011719 L 24.246094 21.582031 C 25.019531 21.707031 25.628906 22.34375 25.75 23.144531 Z M 20.589844 31.214844 C 17.394531 29.925781 15.144531 26.847656 15.144531 23.257812 C 15.144531 21.296875 15.820312 19.488281 16.949219 18.039062 C 14.597656 19.039062 11.460938 20.933594 6.285156 24.527344 C 5.46875 25.097656 2.988281 25.761719 3.574219 26.308594 C 4.011719 26.722656 6.378906 26.417969 8.136719 26.96875 C 14.410156 28.929688 17.222656 30.554688 20.589844 31.214844 Z M 41.78125 24.550781 C 36.953125 21.082031 33.644531 19.121094 30.945312 18.054688 C 32.070312 19.5 32.738281 21.300781 32.738281 23.257812 C 32.738281 26.730469 30.632812 29.71875 27.605469 31.078125 C 31.652344 30.144531 35.683594 28.003906 39.527344 26.941406 C 42.152344 26.214844 43.183594 26.804688 44.335938 26.226562 C 44.800781 25.992188 42.449219 25.03125 41.78125 24.550781 Z M 41.78125 24.550781 "/></svg>