<?xml version="1.0" encoding="UTF-8"?>
<svg version="1.1" xmlns="http://www.w3.org/2000/svg" width="250" height="250">
<path d="M0 0 C82.5 0 165 0 250 0 C250 82.5 250 165 250 250 C167.5 250 85 250 0 250 C0 167.5 0 85 0 0 Z " fill="#FFFFFF" transform="translate(0,0)"/>
<path d="M0 0 C3.63 0 7.26 0 11 0 C11 11.55 11 23.1 11 35 C14.96 35 18.92 35 23 35 C23 31.37 23 27.74 23 24 C26.96 24 30.92 24 35 24 C35 20.04 35 16.08 35 12 C31.04 12 27.08 12 23 12 C23 8.04 23 4.08 23 0 C30.92 0 38.84 0 47 0 C47 3.96 47 7.92 47 12 C50.96 12 54.92 12 59 12 C59 8.04 59 4.08 59 0 C70.55 0 82.1 0 94 0 C94 7.92 94 15.84 94 24 C97.96 24 101.92 24 106 24 C106 20.04 106 16.08 106 12 C109.96 12 113.92 12 118 12 C118 15.96 118 19.92 118 24 C121.63 24 125.26 24 129 24 C129 27.63 129 31.26 129 35 C132.96 35 136.92 35 141 35 C141 42.92 141 50.84 141 59 C148.92 59 156.84 59 165 59 C165 62.96 165 66.92 165 71 C168.96 71 172.92 71 177 71 C177 74.96 177 78.92 177 83 C173.04 83 169.08 83 165 83 C165 86.63 165 90.26 165 94 C172.59 94 180.18 94 188 94 C188 78.49 188 62.98 188 47 C184.37 47 180.74 47 177 47 C177 35.45 177 23.9 177 12 C184.59 12 192.18 12 200 12 C200 8.04 200 4.08 200 0 C203.96 0 207.92 0 212 0 C212 3.96 212 7.92 212 12 C215.96 12 219.92 12 224 12 C224 8.04 224 4.08 224 0 C231.92 0 239.84 0 248 0 C248 11.55 248 23.1 248 35 C244.04 35 240.08 35 236 35 C236 38.96 236 42.92 236 47 C232.04 47 228.08 47 224 47 C224 39.41 224 31.82 224 24 C220.04 24 216.08 24 212 24 C212 35.55 212 47.1 212 59 C208.04 59 204.08 59 200 59 C200 66.92 200 74.84 200 83 C207.92 83 215.84 83 224 83 C224 86.63 224 90.26 224 94 C227.96 94 231.92 94 236 94 C236 101.92 236 109.84 236 118 C232.04 118 228.08 118 224 118 C224 114.04 224 110.08 224 106 C220.04 106 216.08 106 212 106 C212 102.04 212 98.08 212 94 C208.04 94 204.08 94 200 94 C200 97.96 200 101.92 200 106 C188.45 106 176.9 106 165 106 C165 113.92 165 121.84 165 130 C168.96 130 172.92 130 177 130 C177 133.96 177 137.92 177 142 C161.16 142 145.32 142 129 142 C129 145.96 129 149.92 129 154 C125.37 154 121.74 154 118 154 C118 150.04 118 146.08 118 142 C114.04 142 110.08 142 106 142 C106.020625 143.959375 106.04125 145.91875 106.0625 147.9375 C106.08377188 149.95832876 106.07244053 151.98035801 106 154 C105 155 105 155 103.22151089 155.12304783 C102.44075223 155.12212604 101.65999357 155.12120424 100.85557556 155.12025452 C99.96230057 155.12162918 99.06902557 155.12300385 98.14868164 155.12442017 C97.16109863 155.12082489 96.17351562 155.11722961 95.15600586 155.11352539 C93.6049691 155.11374443 93.6049691 155.11374443 92.02259827 155.1139679 C88.58665914 155.11326827 85.15077347 155.10547358 81.71484375 155.09765625 C79.33972707 155.09579225 76.96461 155.09436826 74.5894928 155.09336853 C68.32423856 155.08954197 62.05900733 155.0797105 55.79376221 155.06866455 C49.4061311 155.0584534 43.01849629 155.05387155 36.63085938 155.04882812 C24.08722974 155.03808836 11.54361609 155.02120127 -1 155 C-1.02365331 139.95842278 -1.04113475 124.91684642 -1.05181217 109.87525463 C-1.05690779 102.88680067 -1.06384396 95.89835855 -1.07543945 88.90991211 C-1.17196466 29.60300815 -1.17196466 29.60300815 0 0 Z " fill="#FFFFFF" transform="translate(1,95)"/>
<path d="M0 0 C27.39 0 54.78 0 83 0 C83 27.06 83 54.12 83 82 C55.61 82 28.22 82 0 82 C0 54.94 0 27.88 0 0 Z " fill="#FFFFFF" transform="translate(166,1)"/>
<path d="M0 0 C27.06 0 54.12 0 82 0 C82 27.06 82 54.12 82 82 C54.94 82 27.88 82 0 82 C0 54.94 0 27.88 0 0 Z " fill="#FFFFFF" transform="translate(1,1)"/>
<path d="M0 0 C3.96 0 7.92 0 12 0 C12 3.96 12 7.92 12 12 C15.96 12 19.92 12 24 12 C24 8.04 24 4.08 24 0 C31.92 0 39.84 0 48 0 C48 11.55 48 23.1 48 35 C44.04 35 40.08 35 36 35 C36 38.96 36 42.92 36 47 C32.04 47 28.08 47 24 47 C24 39.41 24 31.82 24 24 C20.04 24 16.08 24 12 24 C12 35.55 12 47.1 12 59 C8.04 59 4.08 59 0 59 C0 66.92 0 74.84 0 83 C7.92 83 15.84 83 24 83 C24 86.63 24 90.26 24 94 C27.96 94 31.92 94 36 94 C36 101.92 36 109.84 36 118 C32.04 118 28.08 118 24 118 C24 114.04 24 110.08 24 106 C20.04 106 16.08 106 12 106 C12 102.04 12 98.08 12 94 C8.04 94 4.08 94 0 94 C0 97.96 0 101.92 0 106 C-11.55 106 -23.1 106 -35 106 C-35 113.92 -35 121.84 -35 130 C-31.04 130 -27.08 130 -23 130 C-23 133.96 -23 137.92 -23 142 C-38.84 142 -54.68 142 -71 142 C-71 138.04 -71 134.08 -71 130 C-67.04 130 -63.08 130 -59 130 C-59 118.12 -59 106.24 -59 94 C-55.04 94 -51.08 94 -47 94 C-47 90.37 -47 86.74 -47 83 C-43.04 83 -39.08 83 -35 83 C-35 86.63 -35 90.26 -35 94 C-27.41 94 -19.82 94 -12 94 C-12 78.49 -12 62.98 -12 47 C-15.63 47 -19.26 47 -23 47 C-23 35.45 -23 23.9 -23 12 C-15.41 12 -7.82 12 0 12 C0 8.04 0 4.08 0 0 Z " fill="#000000" transform="translate(201,95)"/>
<path d="M0 0 C19.47 0 38.94 0 59 0 C59 19.47 59 38.94 59 59 C39.53 59 20.06 59 0 59 C0 39.53 0 20.06 0 0 Z " fill="#FFFFFF" transform="translate(12,178)"/>
<path d="M0 0 C27.06 0 54.12 0 82 0 C82 27.39 82 54.78 82 83 C54.94 83 27.88 83 0 83 C0 55.61 0 28.22 0 0 Z M11 12 C11 31.47 11 50.94 11 71 C30.47 71 49.94 71 70 71 C70 51.53 70 32.06 70 12 C50.53 12 31.06 12 11 12 Z " fill="#000000" transform="translate(1,166)"/>
<path d="M0 0 C27.39 0 54.78 0 83 0 C83 27.06 83 54.12 83 82 C55.61 82 28.22 82 0 82 C0 54.94 0 27.88 0 0 Z M12 11 C12 30.47 12 49.94 12 70 C31.47 70 50.94 70 71 70 C71 50.53 71 31.06 71 11 C51.53 11 32.06 11 12 11 Z " fill="#000000" transform="translate(166,1)"/>
<path d="M0 0 C27.06 0 54.12 0 82 0 C82 27.06 82 54.12 82 82 C54.94 82 27.88 82 0 82 C0 54.94 0 27.88 0 0 Z M11 11 C11 30.47 11 49.94 11 70 C30.47 70 49.94 70 70 70 C70 50.53 70 31.06 70 11 C50.53 11 31.06 11 11 11 Z " fill="#000000" transform="translate(1,1)"/>
<path d="M0 0 C7.92 0 15.84 0 24 0 C24 3.96 24 7.92 24 12 C27.96 12 31.92 12 36 12 C36 8.04 36 4.08 36 0 C47.55 0 59.1 0 71 0 C71 7.92 71 15.84 71 24 C74.96 24 78.92 24 83 24 C83 20.04 83 16.08 83 12 C86.96 12 90.92 12 95 12 C95 15.96 95 19.92 95 24 C98.63 24 102.26 24 106 24 C106 27.63 106 31.26 106 35 C86.53 35 67.06 35 47 35 C47 38.96 47 42.92 47 47 C39.41 47 31.82 47 24 47 C24 43.04 24 39.08 24 35 C16.08 35 8.16 35 0 35 C0 31.37 0 27.74 0 24 C3.96 24 7.92 24 12 24 C12 20.04 12 16.08 12 12 C8.04 12 4.08 12 0 12 C0 8.04 0 4.08 0 0 Z " fill="#000000" transform="translate(24,95)"/>
<path d="M0 0 C3.96 0 7.92 0 12 0 C12 7.92 12 15.84 12 24 C19.92 24 27.84 24 36 24 C36 27.96 36 31.92 36 36 C28.08 36 20.16 36 12 36 C12 39.96 12 43.92 12 48 C8.04 48 4.08 48 0 48 C0 51.63 0 55.26 0 59 C-3.63 59 -7.26 59 -11 59 C-11 66.92 -11 74.84 -11 83 C-14.96 83 -18.92 83 -23 83 C-23 86.96 -23 90.92 -23 95 C-26.96 95 -30.92 95 -35 95 C-35 87.08 -35 79.16 -35 71 C-31.04 71 -27.08 71 -23 71 C-23 67.04 -23 63.08 -23 59 C-26.96 59 -30.92 59 -35 59 C-35 47.45 -35 35.9 -35 24 C-27.08 24 -19.16 24 -11 24 C-11 20.04 -11 16.08 -11 12 C-7.37 12 -3.74 12 0 12 C0 8.04 0 4.08 0 0 Z " fill="#000000" transform="translate(130,130)"/>
<path d="M0 0 C3.96 0 7.92 0 12 0 C12 7.59 12 15.18 12 23 C19.92 23 27.84 23 36 23 C36.63841015 29.38410153 37.15040209 35.44954496 37.1328125 41.81640625 C37.13376923 42.59894272 37.13472595 43.38147919 37.13571167 44.18772888 C37.136385 45.81859418 37.13459065 47.44946229 37.13037109 49.08032227 C37.12494458 51.58811298 37.13037795 54.09572989 37.13671875 56.60351562 C37.1360591 58.1953129 37.13478028 59.78711006 37.1328125 61.37890625 C37.13483673 62.12983047 37.13686096 62.8807547 37.13894653 63.6544342 C37.11499574 68.88500426 37.11499574 68.88500426 36 70 C34.21928754 70.08726223 32.4351686 70.10699041 30.65234375 70.09765625 C29.57275391 70.09443359 28.49316406 70.09121094 27.38085938 70.08789062 C26.24455078 70.07951172 25.10824219 70.07113281 23.9375 70.0625 C22.79732422 70.05798828 21.65714844 70.05347656 20.48242188 70.04882812 C17.65492582 70.0369976 14.82745655 70.0190615 12 70 C12 66.37 12 62.74 12 59 C4.08 59 -3.84 59 -12 59 C-12 51.08 -12 43.16 -12 35 C-8.04 35 -4.08 35 0 35 C0 23.45 0 11.9 0 0 Z " fill="#FFFFFF" transform="translate(213,119)"/>
<path d="M0 0 C3.96 0 7.92 0 12 0 C12 3.96 12 7.92 12 12 C15.96 12 19.92 12 24 12 C24 19.92 24 27.84 24 36 C20.04 36 16.08 36 12 36 C12 39.96 12 43.92 12 48 C15.96 48 19.92 48 24 48 C24 51.96 24 55.92 24 60 C16.08 60 8.16 60 0 60 C0 56.04 0 52.08 0 48 C-3.96 48 -7.92 48 -12 48 C-12 44.04 -12 40.08 -12 36 C-19.59 36 -27.18 36 -35 36 C-35 28.08 -35 20.16 -35 12 C-23.45 12 -11.9 12 0 12 C0 8.04 0 4.08 0 0 Z " fill="#FFFFFF" transform="translate(201,189)"/>
<path d="M0 0 C11.88 0 23.76 0 36 0 C36 3.96 36 7.92 36 12 C28.08 12 20.16 12 12 12 C12 15.63 12 19.26 12 23 C8.04 23 4.08 23 0 23 C0 34.88 0 46.76 0 59 C-3.96 59 -7.92 59 -12 59 C-12 66.92 -12 74.84 -12 83 C-15.63 83 -19.26 83 -23 83 C-23 79.04 -23 75.08 -23 71 C-26.96 71 -30.92 71 -35 71 C-35 63.08 -35 55.16 -35 47 C-31.04 47 -27.08 47 -23 47 C-23 39.08 -23 31.16 -23 23 C-19.37 23 -15.74 23 -12 23 C-12 19.37 -12 15.74 -12 12 C-8.04 12 -4.08 12 0 12 C0 8.04 0 4.08 0 0 Z " fill="#FFFFFF" transform="translate(142,166)"/>
<path d="M0 0 C3.96 0 7.92 0 12 0 C12 3.63 12 7.26 12 11 C15.96 11 19.92 11 24 11 C24 14.96 24 18.92 24 23 C31.59 23 39.18 23 47 23 C47 34.88 47 46.76 47 59 C43.04 59 39.08 59 35 59 C35 55.04 35 51.08 35 47 C23.45 47 11.9 47 0 47 C0 43.04 0 39.08 0 35 C3.96 35 7.92 35 12 35 C12 31.04 12 27.08 12 23 C8.04 23 4.08 23 0 23 C0 15.41 0 7.82 0 0 Z " fill="#000000" transform="translate(95,1)"/>
<path d="M0 0 C11.55 0 23.1 0 35 0 C35 7.92 35 15.84 35 24 C38.96 24 42.92 24 47 24 C47 20.04 47 16.08 47 12 C50.96 12 54.92 12 59 12 C59 15.96 59 19.92 59 24 C62.63 24 66.26 24 70 24 C70 27.63 70 31.26 70 35 C50.53 35 31.06 35 11 35 C11 31.37 11 27.74 11 24 C14.96 24 18.92 24 23 24 C23 20.04 23 16.08 23 12 C15.41 12 7.82 12 0 12 C0 8.04 0 4.08 0 0 Z " fill="#000000" transform="translate(60,95)"/>
<path d="M0 0 C11.88 0 23.76 0 36 0 C36 11.88 36 23.76 36 36 C24.12 36 12.24 36 0 36 C0 24.12 0 12.24 0 0 Z " fill="#000000" transform="translate(24,189)"/>
<path d="M0 0 C11.88 0 23.76 0 36 0 C36 11.88 36 23.76 36 36 C24.12 36 12.24 36 0 36 C0 24.12 0 12.24 0 0 Z " fill="#000000" transform="translate(189,24)"/>
<path d="M0 0 C11.88 0 23.76 0 36 0 C36 11.88 36 23.76 36 36 C24.12 36 12.24 36 0 36 C0 24.12 0 12.24 0 0 Z " fill="#000000" transform="translate(24,24)"/>
<path d="M0 0 C3.63 0 7.26 0 11 0 C11 3.96 11 7.92 11 12 C14.96 12 18.92 12 23 12 C23 15.96 23 19.92 23 24 C30.26 24 37.52 24 45 24 C45 24.33 45 24.66 45 25 C6.39 25 -32.22 25 -72 25 C-71.67 20.71 -71.34 16.42 -71 12 C-67.04 12 -63.08 12 -59 12 C-59 15.96 -59 19.92 -59 24 C-55.37 24 -51.74 24 -48 24 C-48 20.04 -48 16.08 -48 12 C-32.16 12 -16.32 12 0 12 C0 8.04 0 4.08 0 0 Z " fill="#FFFFFF" transform="translate(178,225)"/>
<path d="M0 0 C19.47 0 38.94 0 59 0 C59 3.96 59 7.92 59 12 C55.37 12 51.74 12 48 12 C48 15.96 48 19.92 48 24 C40.08 24 32.16 24 24 24 C24 20.04 24 16.08 24 12 C16.08 12 8.16 12 0 12 C0 8.04 0 4.08 0 0 Z " fill="#FFFFFF" transform="translate(71,130)"/>
<path d="M0 0 C3.63 0 7.26 0 11 0 C11 15.51 11 31.02 11 47 C3.41 47 -4.18 47 -12 47 C-12 43.37 -12 39.74 -12 36 C-8.04 36 -4.08 36 0 36 C0 32.04 0 28.08 0 24 C-3.96 24 -7.92 24 -12 24 C-12 20.04 -12 16.08 -12 12 C-8.04 12 -4.08 12 0 12 C0 8.04 0 4.08 0 0 Z " fill="#FFFFFF" transform="translate(178,142)"/>
<path d="M0 0 C7.92 0 15.84 0 24 0 C24 3.96 24 7.92 24 12 C27.96 12 31.92 12 36 12 C36 15.96 36 19.92 36 24 C28.08 24 20.16 24 12 24 C12 20.04 12 16.08 12 12 C8.04 12 4.08 12 0 12 C0 8.04 0 4.08 0 0 Z " fill="#000000" transform="translate(189,225)"/>
<path d="M0 0 C3.96 0 7.92 0 12 0 C12 7.92 12 15.84 12 24 C8.04 24 4.08 24 0 24 C0 27.96 0 31.92 0 36 C-3.96 36 -7.92 36 -12 36 C-12 28.08 -12 20.16 -12 12 C-8.04 12 -4.08 12 0 12 C0 8.04 0 4.08 0 0 Z " fill="#000000" transform="translate(107,189)"/>
<path d="M0 0 C3.96 0 7.92 0 12 0 C12 3.96 12 7.92 12 12 C15.96 12 19.92 12 24 12 C24 15.96 24 19.92 24 24 C12.45 24 0.9 24 -11 24 C-11 20.04 -11 16.08 -11 12 C-7.37 12 -3.74 12 0 12 C0 8.04 0 4.08 0 0 Z " fill="#000000" transform="translate(12,130)"/>
<path d="M0 0 C7.92 0 15.84 0 24 0 C24 3.96 24 7.92 24 12 C20.04 12 16.08 12 12 12 C12 15.96 12 19.92 12 24 C8.04 24 4.08 24 0 24 C0 16.08 0 8.16 0 0 Z " fill="#FFFFFF" transform="translate(95,95)"/>
<path d="M0 0 C3.96 0 7.92 0 12 0 C12 3.96 12 7.92 12 12 C15.96 12 19.92 12 24 12 C24 15.96 24 19.92 24 24 C16.08 24 8.16 24 0 24 C0 16.08 0 8.16 0 0 Z " fill="#000000" transform="translate(95,71)"/>
<path d="M0 0 C7.59 0 15.18 0 23 0 C23 3.96 23 7.92 23 12 C19.04 12 15.08 12 11 12 C11 15.63 11 19.26 11 23 C7.37 23 3.74 23 0 23 C0 15.41 0 7.82 0 0 Z " fill="#FFFFFF" transform="translate(60,107)"/>
<path d="M0 0 C3.63 0 7.26 0 11 0 C11 11.55 11 23.1 11 35 C7.37 35 3.74 35 0 35 C0 23.45 0 11.9 0 0 Z " fill="#000000" transform="translate(1,95)"/>
<path d="M0 0 C7.92 0 15.84 0 24 0 C24 3.96 24 7.92 24 12 C16.08 12 8.16 12 0 12 C0 8.04 0 4.08 0 0 Z " fill="#000000" transform="translate(71,142)"/>
<path d="M0 0 C3.96 0 7.92 0 12 0 C12 7.59 12 15.18 12 23 C8.04 23 4.08 23 0 23 C0 15.41 0 7.82 0 0 Z " fill="#FFFFFF" transform="translate(107,166)"/>
<path d="M0 0 C3.96 0 7.92 0 12 0 C12 7.59 12 15.18 12 23 C8.04 23 4.08 23 0 23 C0 15.41 0 7.82 0 0 Z " fill="#FFFFFF" transform="translate(189,119)"/>
<path d="M0 0 C3.96 0 7.92 0 12 0 C12 7.59 12 15.18 12 23 C8.04 23 4.08 23 0 23 C0 15.41 0 7.82 0 0 Z " fill="#000000" transform="translate(154,107)"/>
<path d="M0 0 C7.59 0 15.18 0 23 0 C23 3.96 23 7.92 23 12 C15.41 12 7.82 12 0 12 C0 8.04 0 4.08 0 0 Z " fill="#000000" transform="translate(119,95)"/>
<path d="M0 0 C0 7.59 0 15.18 0 23 C-0.33 23 -0.66 23 -1 23 C-1 19.7 -1 16.4 -1 13 C-4.96 13 -8.92 13 -13 13 C-13 9.04 -13 5.08 -13 1 C-1.125 0 -1.125 0 0 0 Z " fill="#FFFFFF" transform="translate(250,129)"/>
<path d="M0 0 C3.96 0 7.92 0 12 0 C12 3.96 12 7.92 12 12 C8.37 12 4.74 12 1 12 C1 15.96 1 19.92 1 24 C0.67 24 0.34 24 0 24 C0 16.08 0 8.16 0 0 Z " fill="#FFFFFF" transform="translate(0,130)"/>
<path d="M0 0 C3.96 0 7.92 0 12 0 C12 3.96 12 7.92 12 12 C8.04 12 4.08 12 0 12 C0 8.04 0 4.08 0 0 Z " fill="#000000" transform="translate(95,237)"/>
<path d="M0 0 C3.96 0 7.92 0 12 0 C12 3.96 12 7.92 12 12 C8.04 12 4.08 12 0 12 C0 8.04 0 4.08 0 0 Z " fill="#000000" transform="translate(237,225)"/>
<path d="M0 0 C3.96 0 7.92 0 12 0 C12 3.96 12 7.92 12 12 C8.04 12 4.08 12 0 12 C0 8.04 0 4.08 0 0 Z " fill="#000000" transform="translate(107,225)"/>
<path d="M0 0 C3.96 0 7.92 0 12 0 C12 3.96 12 7.92 12 12 C8.04 12 4.08 12 0 12 C0 8.04 0 4.08 0 0 Z " fill="#000000" transform="translate(213,213)"/>
<path d="M0 0 C3.96 0 7.92 0 12 0 C12 3.96 12 7.92 12 12 C8.04 12 4.08 12 0 12 C0 8.04 0 4.08 0 0 Z " fill="#FFFFFF" transform="translate(107,213)"/>
<path d="M0 0 C3.96 0 7.92 0 12 0 C12 3.96 12 7.92 12 12 C8.04 12 4.08 12 0 12 C0 8.04 0 4.08 0 0 Z " fill="#000000" transform="translate(166,166)"/>
<path d="M0 0 C3.96 0 7.92 0 12 0 C12 3.96 12 7.92 12 12 C8.04 12 4.08 12 0 12 C0 8.04 0 4.08 0 0 Z " fill="#000000" transform="translate(237,142)"/>
<path d="M0 0 C3.96 0 7.92 0 12 0 C12 3.96 12 7.92 12 12 C8.04 12 4.08 12 0 12 C0 8.04 0 4.08 0 0 Z " fill="#000000" transform="translate(166,142)"/>
<path d="M0 0 C3.96 0 7.92 0 12 0 C12 3.96 12 7.92 12 12 C8.04 12 4.08 12 0 12 C0 8.04 0 4.08 0 0 Z " fill="#000000" transform="translate(166,95)"/>
<path d="M0 0 C3.96 0 7.92 0 12 0 C12 3.96 12 7.92 12 12 C8.04 12 4.08 12 0 12 C0 8.04 0 4.08 0 0 Z " fill="#000000" transform="translate(142,71)"/>
<path d="M0 0 C3.63 0 7.26 0 11 0 C11 3.96 11 7.92 11 12 C7.37 12 3.74 12 0 12 C0 8.04 0 4.08 0 0 Z " fill="#000000" transform="translate(119,237)"/>
<path d="M0 0 C3.63 0 7.26 0 11 0 C11 3.96 11 7.92 11 12 C7.37 12 3.74 12 0 12 C0 8.04 0 4.08 0 0 Z " fill="#FFFFFF" transform="translate(119,225)"/>
<path d="M0 0 C3.63 0 7.26 0 11 0 C11 3.96 11 7.92 11 12 C7.37 12 3.74 12 0 12 C0 8.04 0 4.08 0 0 Z " fill="#000000" transform="translate(178,213)"/>
<path d="M0 0 C3.63 0 7.26 0 11 0 C11 3.96 11 7.92 11 12 C7.37 12 3.74 12 0 12 C0 8.04 0 4.08 0 0 Z " fill="#000000" transform="translate(119,213)"/>
<path d="M0 0 C3.96 0 7.92 0 12 0 C12 3.63 12 7.26 12 11 C8.04 11 4.08 11 0 11 C0 7.37 0 3.74 0 0 Z " fill="#000000" transform="translate(237,178)"/>
<path d="M0 0 C3.63 0 7.26 0 11 0 C11 3.96 11 7.92 11 12 C7.37 12 3.74 12 0 12 C0 8.04 0 4.08 0 0 Z " fill="#000000" transform="translate(119,71)"/>
<path d="M0 0 C3.96 0 7.92 0 12 0 C12 3.63 12 7.26 12 11 C8.04 11 4.08 11 0 11 C0 7.37 0 3.74 0 0 Z " fill="#000000" transform="translate(130,1)"/>
</svg>
