<svg width="25" height="25" viewBox="0 0 25 25" fill="currentColor" xmlns="http://www.w3.org/2000/svg">
<path d="M18.4088 4.22635C18.1895 4.00535 17.8598 3.93924 17.5733 4.05884C17.2868 4.17845 17.1 4.46021 17.1 4.77275V7.09092H14.8426V8.63637H17.8667C18.2901 8.63637 18.6333 8.29041 18.6333 7.86365V6.63827L22.1491 10.1818L18.6333 13.7254V12.5C18.6333 12.0732 18.2901 11.7273 17.8667 11.7273H7.9V9.4091C7.9 9.09656 7.71321 8.8148 7.42672 8.69519C7.14024 8.57559 6.81048 8.6417 6.59122 8.8627L1.22455 14.2718C0.92515 14.5735 0.92515 15.0628 1.22455 15.3646L6.59122 20.7737C6.81048 20.9946 7.14024 21.0608 7.42672 20.9412C7.71321 20.8216 7.9 20.5398 7.9 20.2273V17.9091H10.5833V16.3636H7.13333C6.70992 16.3636 6.36667 16.7096 6.36667 17.1364V18.3617L2.8509 14.8182L6.36667 11.2746V12.5C6.36667 12.9268 6.70992 13.2727 7.13333 13.2727H17.1V15.5909C17.1 15.9034 17.2868 16.1852 17.5733 16.3048C17.8598 16.4244 18.1895 16.3583 18.4088 16.1373L23.7754 10.7282C24.0749 10.4265 24.0749 9.93719 23.7754 9.63543L18.4088 4.22635Z" />
<path d="M11.2222 16.3636V17.9091H12.713V16.3636H11.2222Z" />
<path d="M13.3519 16.3636V17.9091H14.8426V16.3636H13.3519Z" />
<path d="M14.2037 8.63637V7.09092H12.9259V8.63637H14.2037Z" />
<path d="M12.287 8.63637V7.09092H10.9028V8.63637H12.287Z" />
</svg>