<?xml version="1.0" encoding="utf-8"?><svg version="1.1" id="Layer_1" xmlns="http://www.w3.org/2000/svg" xmlns:xlink="http://www.w3.org/1999/xlink" x="0px" y="0px" viewBox="0 0 25 25" style="enable-background:new 0 0 25 25;" xml:space="preserve"><g> <path d="M16.5,20.8c-0.9,1-1.9,1.7-2.9,2.2c-1.1,0.5-2.2,0.7-3.4,0.7c-2.3,0-4-0.8-5.4-2.3c-1.1-1.2-1.6-2.6-1.6-4.2 c0-1.4,0.4-2.6,1.3-3.7c0.9-1.1,2.2-2.1,3.9-2.9c-1-1.1-1.7-2.1-2-2.8C6.2,7.3,6,6.6,6,6c0-1.3,0.5-2.5,1.6-3.4 c1-1,2.3-1.5,3.9-1.5c1.5,0,2.7,0.5,3.7,1.4c1,0.9,1.4,2,1.4,3.3c0,2.1-1.4,3.9-4.2,5.4l4,5c0.5-0.9,0.8-1.9,1.1-3.1l2.8,0.6 c-0.5,1.9-1.1,3.5-2,4.7c1,1.3,2.2,2.5,3.4,3.4L19.9,24C18.8,23.3,17.7,22.2,16.5,20.8z M14.9,18.7l-5-6.1c-1.5,0.9-2.4,1.7-3,2.4 c-0.5,0.7-0.8,1.5-0.8,2.2c0,0.9,0.4,1.8,1.1,2.8c0.7,1,1.7,1.4,3,1.4c0.8,0,1.6-0.3,2.5-0.8C13.6,20.2,14.3,19.5,14.9,18.7z M11.1,9.4c1.2-0.7,1.9-1.3,2.3-1.8c0.3-0.5,0.5-1.1,0.5-1.7c0-0.8-0.2-1.4-0.7-1.8c-0.5-0.5-1.1-0.7-1.8-0.7 C10.6,3.3,10,3.5,9.5,4C9,4.4,8.8,5,8.8,5.7c0,0.3,0.1,0.7,0.3,1.1C9.2,7.2,9.5,7.5,9.8,8L11.1,9.4z"/></g></svg>