<!-- Generated by IcoMoon.io -->
<svg version="1.1" xmlns="http://www.w3.org/2000/svg" width="32" height="32" viewBox="0 0 32 32">
<title>ElasticSearch_IntegrationImage</title>
<path d="M18.688 17.792c-2.048-1.024-4.096-1.92-6.144-2.816-1.92 1.664-3.712 3.456-5.632 5.12-0.768 0.64-1.024 1.28-0.896 2.304 0 0.384 0.128 0.768 0.128 1.152 0.64 4.992 6.656 8.192 11.392 4.864 0.896-0.64 1.792-1.28 2.048-2.432 0.256-0.896 0.256-1.92 0.512-2.688 0.512-1.664 0.384-3.2-0.64-4.608-0.256-0.384-0.512-0.768-0.768-0.896zM13.312 14.208c1.792 0.896 3.712 1.664 5.504 2.56 0.384 0.128 0.512 0.128 0.768-0.128 1.92-1.664 3.712-3.328 5.632-4.992 0.512-0.384 0.64-0.896 0.768-1.408 0.256-4.608-3.584-7.936-7.424-7.808-1.792-0.128-3.328 0.64-4.736 1.664-0.768 0.64-1.28 1.408-1.536 2.56-0.128 1.024-0.128 1.152-0.256 1.792-0.384 1.792-0.64 3.456 0.512 4.992 0.256 0.256 0.512 0.64 0.768 0.768zM26.496 12.032c-2.048 1.792-4.096 3.584-6.144 5.376-0.128 0.128-0.128 0.384-0.128 0.64 0.256 0.64 0.64 1.28 0.896 1.92 0.128 0.128 0.384 0.384 0.512 0.384 1.408 0.384 2.816 0.64 4.352 1.024 0.128 0 0.384 0 0.512 0 1.792-0.64 3.2-2.432 3.2-4.48 0.128-2.432-1.152-3.968-3.2-4.864zM11.648 14.080c0.128-0.512-0.512-1.28-0.768-1.792-0.256-0.384-0.512-0.64-0.896-0.64-1.28-0.384-2.432-0.64-3.712-0.896-0.384-0.128-0.768-0.128-1.024 0-1.92 0.896-2.944 2.432-3.072 4.608 0.128 2.048 1.024 3.584 2.816 4.48 0.128 0.128 0.512 0 0.64-0.128 1.536-1.408 3.072-2.688 4.608-4.096 0.512-0.512 1.28-1.024 1.408-1.536zM25.6 22.272c-1.152-0.256-2.432-0.64-3.584-0.896-0.384-0.128-0.64 0-0.64 0.512-0.256 1.536-0.512 2.944-0.896 4.48 1.408 1.024 2.816 1.024 4.224 0.128 1.28-0.768 1.792-2.432 1.408-3.84-0.128-0.128-0.384-0.384-0.512-0.384zM6.528 9.728c1.28 0.256 2.56 0.64 3.968 0.896 0.384-1.664 0.768-3.2 1.024-4.864 0-0.128-0.128-0.384-0.384-0.512-1.152-0.768-2.304-0.768-3.584 0-1.152 0.768-1.792 1.792-1.664 3.2 0 0.512-0.128 1.152 0.64 1.28z"></path>
</svg>
