<svg xmlns="http://www.w3.org/2000/svg" viewBox="0 0 128 128" id="akamai">
  <path d="M66.28,120.46c-25.21-8-42.15-30.21-42.15-55.38C24.13,32.89,51.78,6.7,85.77,6.7l.71,0H87a2,2,0,0,0,.43-4A65.08,65.08,0,0,0,68.64,0C32.45,0,3,29.72,3,66.26c0,24.67,12.4,46.2,33.16,57.58A38.78,38.78,0,0,0,52.3,128h1.06c4.64,0,9.89-.5,13.71-4.2a2,2,0,0,0-.79-3.34Z"></path>
  <path d="M77.25,11.16C49.67,13.35,29,37.81,31.16,65.69A50.73,50.73,0,0,0,37.1,85.95,2,2,0,0,0,38.86,87h0a2,2,0,0,0,1.79-2.84,47.47,47.47,0,0,1-1.88-10A46.62,46.62,0,0,1,67.37,27.21,49.57,49.57,0,0,1,86.14,23.6a46.65,46.65,0,0,1,13,1.77,87.82,87.82,0,0,1,15.65,6.55c2.46,1.26,3.29,1.69,4.15,1.69h0a2.13,2.13,0,0,0,1.67-.78,2,2,0,0,0,0-2.49A49.66,49.66,0,0,0,81.23,11C79.91,11,78.57,11.05,77.25,11.16Zm23,10.37A50.61,50.61,0,0,0,86.14,19.6a53.62,53.62,0,0,0-20.29,3.91A50.45,50.45,0,0,0,35.06,64C33.83,38.9,52.63,17.13,77.56,15.15,78.78,15,80,15,81.23,15a45.43,45.43,0,0,1,28.64,10.11A75.2,75.2,0,0,0,100.21,21.53Z"></path>
  <path d="M85,28C62.94,28,45,44.61,45,65a34.71,34.71,0,0,0,.41,5.29,2,2,0,0,0,4,0C51.86,54.15,67.18,42,85,42s33.14,12.18,35.63,28.34a2,2,0,0,0,2,1.69h0a2,2,0,0,0,2-1.7A34.81,34.81,0,0,0,125,65C125,44.61,107.06,28,85,28Z"></path>
  <path d="M92.57,49a23,23,0,0,0-18.14,9,2,2,0,0,0,2.48,3,22.53,22.53,0,0,1,10.16-2.36,25.61,25.61,0,0,1,9,1.65c8,3,14,9.55,15.75,17.17A2,2,0,0,0,113.72,79h.07a2,2,0,0,0,1.91-1.69,25.63,25.63,0,0,0,.3-3.89C116,60,105.49,49,92.57,49Zm4.85,7.52a29.59,29.59,0,0,0-10.36-1.9q-1.16,0-2.32.1A18.62,18.62,0,0,1,92.57,53,19.53,19.53,0,0,1,110.8,66.34,30.19,30.19,0,0,0,97.42,56.52Z"></path>
</svg>
